<svg xmlns="http://www.w3.org/2000/svg" width="32" height="32" viewBox="0 0 32 32">
  <defs>
    <linearGradient id="bgGrad" x1="0%" y1="0%" x2="100%" y2="100%">
      <stop offset="0%" style="stop-color:#4f46e5"/>
      <stop offset="100%" style="stop-color:#7c3aed"/>
    </linearGradient>
  </defs>
  <rect width="32" height="32" rx="8" fill="url(#bgGrad)"/>
  <path d="M22 16c0 4.4-3.6 8-8 8-1.5 0-2.9-.4-4.1-1.1 4.5-.5 8-4.3 8-8.9 0-4.6-3.5-8.4-8-8.9C11.1 4.4 12.5 4 14 4c4.4 0 8 3.6 8 8z" fill="white" opacity="0.95"/>
  <circle cx="8" cy="7" r="1.5" fill="white"/>
  <circle cx="25" cy="10" r="1" fill="white"/>
  <circle cx="6" cy="20" r="1" fill="white"/>
  <circle cx="26" cy="22" r="1.2" fill="white"/>
  <ellipse cx="10" cy="26" rx="3" ry="1.5" fill="white" opacity="0.6"/>
  <ellipse cx="13" cy="26" rx="2" ry="1.2" fill="white" opacity="0.6"/>
</svg>
